# xmcd CD database file
#
# Track frame offsets:
#	150
#	30985
#	51470
#	70877
#	95010
#	125685
#	151437
#	176377
#	202737
#	257365
#	286142
#
# Disc length: 4154 seconds
#
# Revision: 2
# Processed by: cddbd v1.5.1PL0 Copyright (c) Steve Scherf et al.
# Submitted via: CDex 1.51
#
DISCID=9110380b
DTITLE=Art Pepper - The Complete Galaxy Recordings CD 15
DYEAR=1900
DGENRE=Jazz
TTITLE0=Over The Rainbow
TTITLE1=Tête-À-Tête
TTITLE2=Darn That Dream
TTITLE3=Body And Soul
TTITLE4=The Way You Look Tonight
TTITLE5='Round Midnight
TTITLE6=A Night In Tunisia
TTITLE7=Sambo Mom Mom
TTITLE8=Last Thing Blues
TTITLE9=Over The Rainbow (Alternate)
TTITLE10=Body And Soul (Alternate)
EXTD=CD 15 of 16
EXTT0=
EXTT1=
EXTT2=
EXTT3=
EXTT4=
EXTT5=
EXTT6=
EXTT7=
EXTT8=
EXTT9=
EXTT10=
PLAYORDER=
